# xmcd
#
# Track frame offsets:
#	150
#	16695
#	29452
#	47740
#	59035
#	76110
#	92112
#	106050
#	119652
#	135200
#	147592
#	166025
#	181087
#	198502
#
# Disc length: 2817
#
# Revision: 2
# Processed by: cddbd v1.5.1PL0 Copyright (c) Steve Scherf et al.
# Submitted via: CDex 1.40Beta8
# Normalized: r0:DSETVAR1,TDELIM( - ),TSWAP
#
DISCID=b30aff0e
DTITLE=Various Artist - Hot Top Country Hits 1989-1993
DYEAR=1900
DGENRE=Country
TTITLE0=Alabama - Juke Box In My Mind
TTITLE1=Holly Dunn - You Really Had Me Going
TTITLE2=Randy Travis - Hard Rock Botton Of Your Heart
TTITLE3=Ricky Van Shelton - I've Cried My Last Tear For You
TTITLE4=K. T. Oslin - Come Next Monday
TTITLE5=Paul Overstreet - Daddy's Come Around
TTITLE6=Mark Chestnutt - Brother Jukebox
TTITLE7=Judds - Let Me Tell You About Love
TTITLE8=Highway 101 - Who's Lonely Now
TTITLE9=Lorrie Morgan - What Part Of No
TTITLE10=Keith Whitley - It Aint Nothin'
TTITLE11=Diamond Rio - Meet Me In The Middle
TTITLE12=Dan Seals - Love On Arrival
TTITLE13=Shenandoah - If Bubba Can Dance (I Can Too)
EXTD=ID3G: 2
EXTT0=
EXTT1=
EXTT2=
EXTT3=
EXTT4=
EXTT5=
EXTT6=
EXTT7=
EXTT8=
EXTT9=
EXTT10=
EXTT11=
EXTT12=
EXTT13=
PLAYORDER=
